<svg data-v-423bf9ae="" xmlns="http://www.w3.org/2000/svg" viewBox="0 0 398 90" class="iconLeft"><!----><!----><!----><g data-v-423bf9ae="" id="9abb6f90-3907-43ed-816e-cb0d4c833b70" fill="white" transform="matrix(5.80279541015625,0,0,5.80279541015625,106.91293334960938,-28.520963668823242)"><path d="M2.94 7.50C1.64 7.50 0.67 8.19 0.67 9.37C0.67 11.63 4.21 11.44 4.21 12.91C4.21 13.65 3.72 13.97 2.94 13.97C2.49 13.97 2.09 13.89 1.76 13.64C1.65 13.31 1.55 12.95 1.55 12.81L1.55 12.28L0.74 12.24L0.59 14.14C0.59 14.14 1.51 14.69 2.90 14.69C4.42 14.69 5.36 14.11 5.36 12.64C5.36 10.43 1.79 10.57 1.79 9.14C1.79 8.57 2.24 8.23 2.93 8.23C3.32 8.23 3.57 8.27 3.86 8.40C3.96 8.72 4.06 9.06 4.06 9.20L4.06 9.70L4.87 9.74L5.04 7.74C4.37 7.60 3.61 7.50 2.94 7.50ZM9.52 7.50C7.46 7.50 6.47 9.02 6.47 11.12C6.47 13.23 7.57 14.69 9.69 14.69C11.27 14.69 12.17 13.85 12.17 13.85L11.77 13.20C11.77 13.20 10.88 13.78 9.69 13.78C8.43 13.78 7.83 12.49 7.78 11.23L11.97 11.23L12.21 10.77C12.21 8.81 11.48 7.50 9.52 7.50ZM9.46 8.23C10.46 8.23 10.92 9.02 10.92 10.01C10.92 10.08 10.91 10.29 10.91 10.29L7.80 10.53C7.90 9.37 8.32 8.23 9.46 8.23ZM15.23 7.88L14.97 7.63L14.46 7.63C14.18 7.63 13.17 7.57 13.17 7.57L13.10 8.32L14.17 8.54C14.17 8.54 14.31 9.32 14.31 9.60L14.31 12.63C14.31 12.91 14.17 13.69 14.17 13.69L13.10 13.92L13.17 14.62C13.17 14.62 14.45 14.55 14.73 14.55C15.85 14.55 16.81 14.62 16.81 14.62L16.91 13.79L15.54 13.69C15.54 13.69 15.44 12.91 15.44 12.21L15.44 10.57C15.50 9.25 16.03 8.48 17.32 8.47L17.37 8.47C17.47 8.76 17.57 9.09 17.57 9.17L17.57 9.91L18.38 9.95L18.52 7.64C18.52 7.64 18.09 7.50 17.57 7.50C16.56 7.50 15.86 7.91 15.32 8.81ZM30.07 8.37L30.03 7.56C30.03 7.56 29.57 7.63 28.45 7.63C28.17 7.63 27.13 7.59 27.13 7.59L27.06 8.32L28.25 8.47C28.15 8.92 28.04 9.45 27.97 9.63L26.81 13.10L24.93 7.63L24.39 7.63L22.61 13.10L21.41 9.66C21.34 9.48 21.20 8.95 21.07 8.47L22.19 8.37L22.15 7.56C22.15 7.56 21.17 7.63 20.05 7.63C19.77 7.63 19.08 7.59 19.08 7.59L19.01 8.32L19.59 8.47C19.84 8.93 20.09 9.53 20.16 9.73C20.27 10.04 21.99 14.55 21.99 14.55L22.93 14.55L24.53 9.86L26.18 14.55L27.13 14.55L28.74 10.08C28.83 9.87 29.18 9.04 29.44 8.46ZM33.32 7.50C31.26 7.50 30.27 9.02 30.27 11.12C30.27 13.23 31.37 14.69 33.49 14.69C35.07 14.69 35.97 13.85 35.97 13.85L35.57 13.20C35.57 13.20 34.68 13.78 33.49 13.78C32.23 13.78 31.63 12.49 31.58 11.23L35.77 11.23L36.01 10.77C36.01 8.81 35.28 7.50 33.32 7.50ZM33.26 8.23C34.26 8.23 34.72 9.02 34.72 10.01C34.72 10.08 34.71 10.29 34.71 10.29L31.60 10.53C31.70 9.37 32.12 8.23 33.26 8.23ZM39.03 7.88L38.77 7.63L38.26 7.63C37.98 7.63 36.97 7.57 36.97 7.57L36.90 8.32L37.97 8.54C37.97 8.54 38.11 9.32 38.11 9.60L38.11 12.63C38.11 12.91 37.97 13.69 37.97 13.69L36.90 13.92L36.97 14.62C36.97 14.62 38.25 14.55 38.53 14.55C39.65 14.55 40.61 14.62 40.61 14.62L40.71 13.79L39.34 13.69C39.34 13.69 39.24 12.91 39.24 12.21L39.24 10.57C39.30 9.25 39.83 8.48 41.12 8.47L41.17 8.47C41.27 8.76 41.37 9.09 41.37 9.17L41.37 9.91L42.18 9.95L42.32 7.64C42.32 7.64 41.89 7.50 41.37 7.50C40.36 7.50 39.66 7.91 39.12 8.81ZM46.63 13.09L45.25 9.66C45.14 9.39 45.00 8.89 44.90 8.47L45.91 8.37L45.86 7.56C45.86 7.56 45.07 7.63 43.95 7.63C43.67 7.63 42.80 7.59 42.80 7.59L42.73 8.32L43.41 8.48C43.68 8.95 43.99 9.53 44.13 9.88L46.13 14.55L45.68 15.79C45.60 16.00 45.39 16.41 45.15 16.74C44.86 16.80 44.39 16.88 44.21 16.88L43.65 16.87L43.54 17.68L45.79 17.84L48.68 10.08C48.79 9.80 49.13 9.06 49.41 8.48L50.15 8.37L50.11 7.56C50.11 7.56 49.56 7.63 48.50 7.63C48.22 7.63 47.28 7.59 47.28 7.59L47.21 8.32L48.23 8.48C48.13 8.93 47.95 9.58 47.85 9.84Z"></path></g><!----><g data-v-423bf9ae="" id="ad734024-e9cb-4b9a-8ff7-8bd8fccfcb0e" transform="matrix(1.1612317562103271,0,0,1.1612317562103271,-9.62773609161377,-11.669629096984863)" stroke="none" fill="white"><path d="M48.096 10.357c-21.367 0-38.75 17.384-38.75 38.751a38.575 38.575 0 0 0 6.058 20.795l-6.277 16.49a1.08 1.08 0 0 0 1.452 1.372L25.94 80.89c6.524 4.562 14.172 6.969 22.157 6.969 21.369 0 38.751-17.384 38.751-38.751S69.465 10.357 48.096 10.357zm0 71.785a32.777 32.777 0 0 1-19.319-6.248 4.616 4.616 0 0 0-2.715-.878 4.6 4.6 0 0 0-1.893.404l-5.721 2.561 2.494-6.556a4.633 4.633 0 0 0-.458-4.196 32.884 32.884 0 0 1-5.418-18.12c0-8.808 3.439-17.099 9.686-23.346 6.246-6.247 14.538-9.687 23.346-9.687 18.215 0 33.034 14.819 33.034 33.033-.002 18.214-14.82 33.033-33.036 33.033z"></path><path d="M41.524 38.781c1.515.498 2.741 1.411 3.68 2.739.752 1.074 1.265 2.236 1.539 3.486s.411 2.441.411 3.574c0 2.872-.577 5.303-1.73 7.295-1.563 2.686-3.978 4.028-7.242 4.028h-9.309V38.312h9.309c1.339.02 2.452.176 3.342.469zm-8.272 3.281v14.092h4.167c2.132 0 3.619-1.05 4.46-3.149.459-1.152.689-2.525.689-4.117 0-2.197-.345-3.884-1.034-5.061-.69-1.177-2.062-1.765-4.115-1.765h-4.167zM66.503 42.135H55.077v4.585h10.488v3.75H55.077v5.552H67.03v3.882H50.669V38.312h15.834v3.823z"></path></g><!----></svg>